<svg version="1.1" id="Layer_1" xmlns="http://www.w3.org/2000/svg" xmlns:xlink="http://www.w3.org/1999/xlink" x="0px" y="0px"
	 width="100%" viewBox="0 0 225 225" enable-background="new 0 0 225 225" xml:space="preserve">
<path fill="#151617" opacity="1.000000" stroke="none" 
	d="
M1.000000,33.000000 
	C1.000000,22.349503 1.000000,11.699004 1.000006,1.051673 
	C76.000015,1.054840 151.000031,1.054840 226.000000,1.054840 
	C226.000000,11.427348 226.000000,21.745016 225.531342,32.531342 
	C150.375122,33.000000 75.687561,33.000000 1.000000,33.000000 
z"/>
<path fill="#020202" opacity="1.000000" stroke="none" 
	d="
M226.000000,200.000000 
	C226.000000,208.652908 226.000000,217.305817 226.000000,225.954163 
	C150.999985,225.949615 75.999977,225.949615 1.000000,225.949615 
	C1.000000,217.911942 1.000000,209.924652 1.468657,201.468674 
	C73.842522,201.000000 145.747742,201.011185 217.652908,200.957779 
	C220.435501,200.955704 223.217651,200.333328 226.000000,200.000000 
z"/>
<path fill="#121312" opacity="1.000000" stroke="none" 
	d="
M1.000000,33.468636 
	C75.687561,33.000000 150.375122,33.000000 225.531342,33.000000 
	C226.000000,48.687561 226.000000,64.375122 225.531342,80.531128 
	C207.942413,80.998482 190.821426,80.926613 173.702972,81.102219 
	C171.927414,81.120430 170.166946,82.609367 168.399490,83.415909 
	C170.490753,87.978966 166.604935,90.624336 164.706085,94.025948 
	C163.940552,94.368034 163.471863,94.686615 162.669495,95.002411 
	C161.890961,94.999245 161.446091,94.998863 160.521881,94.943420 
	C159.422226,94.721542 158.801910,94.554718 158.327225,94.073227 
	C166.013046,83.075508 173.474869,72.335464 181.164185,61.760853 
	C182.583008,59.809631 184.922180,58.527637 187.140106,56.923756 
	C187.824051,56.546780 188.204437,56.182804 188.584808,55.818829 
	C188.094971,55.545605 187.605148,55.272381 187.074890,54.625042 
	C188.104279,52.201942 189.174072,50.152958 190.497513,47.618137 
	C170.275909,47.618137 150.709229,47.554905 131.145065,47.747334 
	C129.699219,47.761559 127.962158,49.362778 126.895866,50.664696 
	C124.183540,53.976387 121.774994,57.536877 118.867996,60.997917 
	C114.177948,60.525440 116.254135,63.449665 116.157990,65.169556 
	C116.088493,65.083168 116.266235,65.215752 115.903732,65.159119 
	C112.372185,65.084213 109.203148,65.065956 105.921837,64.941620 
	C105.809563,64.835548 105.591721,64.616516 105.728699,64.308296 
	C107.522949,61.887177 109.180206,59.774277 111.032387,57.956875 
	C115.725677,58.293560 113.352142,54.832581 114.093025,52.571617 
	C115.138031,50.937023 116.049728,49.621689 117.254326,47.883781 
	C91.147919,47.883781 65.647461,47.883781 39.989384,47.883781 
	C39.989384,54.443760 39.989384,60.739880 40.027573,67.326515 
	C40.377567,68.076538 40.689369,68.536041 40.934242,69.352066 
	C39.100964,70.431534 37.334625,71.154472 36.661755,71.429871 
	C34.857880,67.544418 32.946102,64.664009 32.203190,61.508430 
	C31.304779,57.692348 29.135817,56.931343 25.783340,56.969456 
	C17.523180,57.063354 9.261230,57.000080 1.000000,57.000000 
	C1.000000,49.312424 1.000000,41.624847 1.000000,33.468636 
M118.778008,53.559933 
	C118.578224,53.287670 118.317169,53.101128 117.507843,53.341034 
	C117.339828,53.897560 117.171806,54.454086 117.065887,55.589626 
	C117.708565,55.727680 118.351242,55.865734 119.443649,55.710052 
	C119.294365,55.138817 119.145081,54.567581 118.778008,53.559933 
M121.068443,51.559917 
	C121.491096,51.867096 121.913742,52.174271 122.336395,52.481449 
	C122.222008,51.984158 122.107613,51.486870 122.336861,50.485683 
	C122.351105,49.488113 122.365349,48.490547 122.379585,47.492977 
	C120.949112,47.492977 119.518631,47.492977 118.088158,47.492977 
	C118.049561,47.940502 118.010971,48.388031 117.972382,48.835556 
	C118.982948,49.553528 119.993523,50.271500 121.068443,51.559917 
M39.927319,42.750778 
	C39.162846,42.537674 38.398373,42.324570 37.633904,42.111465 
	C37.576691,42.844437 37.519478,43.577408 37.462261,44.310375 
	C38.276875,44.023613 39.091492,43.736851 39.927319,42.750778 
M173.821075,76.381790 
	C174.027176,77.101212 174.233276,77.820641 174.439377,78.540070 
	C174.827347,78.401634 175.215332,78.263191 175.603302,78.124748 
	C175.209869,77.533203 174.816437,76.941650 173.821075,76.381790 
M118.439499,41.707069 
	C118.708420,41.989010 118.977341,42.270950 119.246254,42.552895 
	C119.362907,42.441395 119.587143,42.239105 119.580711,42.231480 
	C119.329796,41.934158 119.057831,41.654591 118.439499,41.707069 
M116.180679,44.265842 
	C116.026543,44.377533 115.872414,44.489227 115.718277,44.600918 
	C115.932198,44.578644 116.146126,44.556370 116.180679,44.265842 
M126.584473,45.516972 
	C126.584473,45.516972 126.477760,45.579807 126.584473,45.516972 
z"/>
<path fill="#090A0A" opacity="1.000000" stroke="none" 
	d="
M163.003174,95.005188 
	C163.471863,94.686615 163.940552,94.368034 165.095413,94.033020 
	C169.516739,98.632210 174.681519,98.057983 179.791885,98.030464 
	C195.194183,97.947502 210.597244,98.000198 226.000000,98.000000 
	C226.000000,104.687645 226.000000,111.375290 225.531342,118.531464 
	C201.099899,119.000000 177.137100,118.998032 153.174316,119.000999 
	C143.885986,119.002151 143.639053,119.264549 144.127930,128.661346 
	C143.549194,128.796860 142.921158,128.906677 142.316269,129.092041 
	C139.732727,129.883820 136.004211,129.986816 136.666077,133.706253 
	C136.864059,134.818924 140.864853,135.890900 143.129196,135.903122 
	C170.752182,136.052185 198.376221,136.000000 226.000000,136.000000 
	C226.000000,147.354233 226.000000,158.708450 225.531342,170.530914 
	C216.064301,171.000214 207.063278,170.868134 198.068405,171.046204 
	C191.364639,171.178909 191.074539,171.011368 189.914368,164.278763 
	C189.707642,163.079102 188.287048,162.088638 187.146454,160.637756 
	C167.055298,160.173691 147.241959,159.893951 127.437325,160.192535 
	C124.861763,160.231369 121.852486,162.815094 119.883507,164.982574 
	C116.257515,168.974136 113.255180,173.532242 109.942719,177.509384 
	C108.594986,176.443222 107.297493,175.721909 106.054314,174.661819 
	C107.342262,173.277237 108.575897,172.231445 109.356491,171.569717 
	C107.869209,170.584213 106.719017,169.822067 105.708961,168.778534 
	C119.215195,149.658203 132.581284,130.819260 146.358932,111.987732 
	C150.062927,112.428490 151.427841,110.931374 152.163635,107.705933 
	C152.688995,105.403000 154.525009,103.399055 155.890411,101.066551 
	C157.341019,102.664368 158.121689,103.524254 158.902359,104.384148 
	C159.391602,104.178284 159.880829,103.972420 160.370056,103.766556 
	C159.608307,100.719376 158.846542,97.672203 158.092590,94.559059 
	C158.100403,94.493088 158.181580,94.387901 158.181580,94.387901 
	C158.801910,94.554718 159.422226,94.721542 160.560516,95.240974 
	C161.484299,95.911987 161.890137,96.230392 162.295990,96.548798 
	C162.531723,96.034256 162.767441,95.519722 163.003174,95.005188 
z"/>
<path fill="#030303" opacity="1.000000" stroke="none" 
	d="
M187.426956,161.001572 
	C188.287048,162.088638 189.707642,163.079102 189.914368,164.278763 
	C191.074539,171.011368 191.364639,171.178909 198.068405,171.046204 
	C207.063278,170.868134 216.064301,171.000214 225.531342,170.999573 
	C226.000000,180.354233 226.000000,189.708450 226.000000,199.531342 
	C223.217651,200.333328 220.435501,200.955704 217.652908,200.957779 
	C145.747742,201.011185 73.842522,201.000000 1.468657,201.000000 
	C1.000000,193.645752 1.000000,186.291504 1.468657,178.468628 
	C10.202628,177.999985 18.472281,177.842484 26.731323,178.070053 
	C30.547792,178.175186 33.166901,177.573853 33.556740,173.113754 
	C33.646866,172.082642 34.837090,171.084579 35.697216,170.253647 
	C35.822456,170.132660 37.534859,171.130554 37.484264,171.445480 
	C37.299599,172.594955 36.521175,173.637741 36.254486,174.787552 
	C35.611969,177.557709 31.162479,179.292572 34.030121,183.281418 
	C35.038891,183.708145 36.018757,183.853470 37.323219,184.136627 
	C57.431690,183.849655 77.215569,183.424820 97.297318,182.979248 
	C98.065544,182.639969 98.535896,182.321472 99.346870,182.058151 
	C101.989876,183.531754 104.191368,185.783157 107.250443,182.999359 
	C107.498138,182.999329 107.993607,182.998779 108.192017,183.249527 
	C112.861572,184.330521 109.410599,181.193100 110.469009,180.052887 
	C111.114075,179.950729 111.373123,179.916489 111.790085,179.671356 
	C112.271530,179.545288 112.595078,179.630142 112.954308,180.147049 
	C114.652061,181.385437 116.308922,182.880905 117.976997,182.893509 
	C139.031006,183.052719 160.086639,182.995590 181.141861,183.003601 
	C182.631851,183.004166 184.121597,183.104385 185.611862,183.119629 
	C187.667862,183.140671 189.724258,183.124908 191.780487,183.124908 
	C192.006989,182.338379 192.233505,181.551849 192.460007,180.765320 
	C190.790146,179.839355 189.120285,178.913391 187.334045,177.533859 
	C187.287445,171.720718 187.357193,166.361145 187.426956,161.001572 
z"/>
<path fill="#0B0C0D" opacity="1.000000" stroke="none" 
	d="
M1.000000,122.000000 
	C1.000000,110.979103 1.000000,99.958214 1.468657,88.468658 
	C27.579008,88.000000 53.222076,88.145531 78.861488,87.903923 
	C85.801331,87.838524 92.767113,93.085762 99.685898,87.892677 
	C99.759048,87.837776 99.988861,87.991585 100.066879,88.385941 
	C94.379791,96.500526 88.771362,104.277130 82.869644,111.954773 
	C79.493225,113.168701 76.410080,114.481598 72.617523,116.096581 
	C71.236115,115.345001 67.650406,111.367142 66.557014,115.984978 
	C65.079971,122.223190 61.242783,121.945717 56.998764,121.964439 
	C38.332821,122.046791 19.666307,121.999992 1.000000,122.000000 
z"/>
<path fill="#0F1012" opacity="1.000000" stroke="none" 
	d="
M100.145531,88.047958 
	C99.988861,87.991585 99.759048,87.837776 99.685898,87.892677 
	C92.767113,93.085762 85.801331,87.838524 78.861488,87.903923 
	C53.222076,88.145531 27.579008,88.000000 1.468657,88.000000 
	C1.000000,77.979103 1.000000,67.958214 1.000000,57.468658 
	C9.261230,57.000080 17.523180,57.063354 25.783340,56.969456 
	C29.135817,56.931343 31.304779,57.692348 32.203190,61.508430 
	C32.946102,64.664009 34.857880,67.544418 36.661755,71.429871 
	C37.334625,71.154472 39.100964,70.431534 41.402756,69.352905 
	C60.292870,68.999268 78.647530,69.001328 97.090347,69.167419 
	C97.450272,69.224556 97.722038,69.117676 98.277130,68.787796 
	C98.765190,68.133400 98.969902,67.701996 99.403183,67.186401 
	C100.108940,67.099274 100.586136,67.096336 101.034912,67.537117 
	C101.370468,68.334740 101.734467,68.688644 102.098465,69.042549 
	C101.966713,68.354294 101.834961,67.666031 101.922913,66.841080 
	C102.313828,66.725449 102.485046,66.746506 102.894485,66.981979 
	C103.305580,66.848473 103.478439,66.500565 103.789871,65.941498 
	C104.482864,65.359070 105.037292,64.987793 105.591721,64.616516 
	C105.591721,64.616516 105.809563,64.835548 105.907211,65.284515 
	C103.694633,70.852730 109.495087,70.348259 110.858032,73.193016 
	C109.722160,74.983711 108.685753,76.449532 107.623901,77.896690 
	C105.137596,81.285202 102.639099,84.664772 100.145531,88.047958 
z"/>
<path fill="#090B0A" opacity="1.000000" stroke="none" 
	d="
M226.000000,135.532394 
	C198.376221,136.000000 170.752182,136.052185 143.129196,135.903122 
	C140.864853,135.890900 136.864059,134.818924 136.666077,133.706253 
	C136.004211,129.986816 139.732727,129.883820 142.316269,129.092041 
	C142.921158,128.906677 143.549194,128.796860 144.127930,128.661346 
	C143.639053,119.264549 143.885986,119.002151 153.174316,119.000999 
	C177.137100,118.998032 201.099899,119.000000 225.531342,119.000000 
	C226.000000,124.354927 226.000000,129.709854 226.000000,135.532394 
z"/>
<path fill="#090A0A" opacity="1.000000" stroke="none" 
	d="
M1.000000,122.467941 
	C19.666307,121.999992 38.332821,122.046791 56.998764,121.964439 
	C61.242783,121.945717 65.079971,122.223190 66.557014,115.984978 
	C67.650406,111.367142 71.236115,115.345001 72.617523,116.096581 
	C76.410080,114.481598 79.493225,113.168701 82.798851,112.297760 
	C73.686935,125.844566 64.352539,138.949417 54.851006,151.816589 
	C53.122551,150.385757 51.561226,149.192566 50.000061,147.612228 
	C50.137047,145.998795 50.273869,144.772522 50.438213,143.299591 
	C52.721256,144.476456 54.574837,145.431946 57.251579,146.811752 
	C57.661957,144.324326 58.010426,142.212158 58.358894,140.099976 
	C56.348339,140.044052 54.338062,139.966537 52.327114,139.939789 
	C50.999592,139.922119 49.671097,139.996689 48.343033,139.997070 
	C32.562023,140.001633 16.781012,140.000000 1.000000,140.000000 
	C1.000000,134.311951 1.000000,128.623917 1.000000,122.467941 
M72.562927,122.147934 
	C72.583961,121.484352 72.604996,120.820763 72.626030,120.157173 
	C71.833527,120.489166 71.041023,120.821159 70.248528,121.153160 
	C70.824318,121.587242 71.400116,122.021332 72.562927,122.147934 
M67.600647,124.800842 
	C67.211487,124.796562 66.822327,124.792290 66.433159,124.788017 
	C66.431564,124.949509 66.419106,125.251366 66.429947,125.252205 
	C66.817200,125.282188 67.206642,125.284027 67.600647,124.800842 
z"/>
<path fill="#060606" opacity="1.000000" stroke="none" 
	d="
M49.999897,147.999390 
	C51.561226,149.192566 53.122551,150.385757 54.800011,152.141312 
	C53.839001,153.487045 52.761860,154.270416 51.362282,155.070541 
	C50.711548,155.222321 50.383255,155.357330 50.054962,155.492325 
	C50.107761,155.614471 50.160564,155.736618 50.213364,155.858749 
	C50.718678,155.633774 51.223995,155.408783 52.008583,155.567871 
	C46.976913,163.466003 41.665970,170.980072 35.722668,179.388809 
	C53.240654,179.388809 69.307793,179.410965 85.374809,179.377502 
	C91.485207,179.364777 98.028915,180.810181 102.628906,174.883453 
	C102.954681,175.054977 103.145264,175.051941 103.335846,175.048920 
	C103.127159,174.863708 102.918465,174.678528 102.447731,174.199158 
	C103.313400,172.289948 104.441116,170.674942 105.568825,169.059921 
	C106.719017,169.822067 107.869209,170.584213 109.356491,171.569717 
	C108.575897,172.231445 107.342262,173.277237 105.904816,175.005432 
	C106.134926,178.125015 106.568832,180.562195 107.002747,182.999390 
	C104.191368,185.783157 101.989876,183.531754 99.196716,181.871765 
	C98.137108,182.086792 97.568275,182.543396 96.999451,183.000000 
	C77.215569,183.424820 57.431690,183.849655 37.286240,183.833984 
	C35.950191,183.262329 34.975704,183.131165 34.001221,183.000000 
	C31.162479,179.292572 35.611969,177.557709 36.254486,174.787552 
	C36.521175,173.637741 37.299599,172.594955 37.484264,171.445480 
	C37.534859,171.130554 35.822456,170.132660 35.697216,170.253647 
	C34.837090,171.084579 33.646866,172.082642 33.556740,173.113754 
	C33.166901,177.573853 30.547792,178.175186 26.731323,178.070053 
	C18.472281,177.842484 10.202628,177.999985 1.468657,178.000000 
	C1.000000,170.645752 1.000000,163.291504 1.468657,155.468628 
	C15.221984,154.999939 28.506958,154.948227 41.791161,155.026794 
	C46.685627,155.055756 49.838905,153.352493 49.999897,147.999390 
M42.413078,163.482880 
	C42.413078,163.482880 42.522411,163.417877 42.413078,163.482880 
z"/>
<path fill="#0D0E0F" opacity="1.000000" stroke="none" 
	d="
M226.000000,97.532394 
	C210.597244,98.000198 195.194183,97.947502 179.791885,98.030464 
	C174.681519,98.057983 169.516739,98.632210 165.392242,94.009506 
	C166.604935,90.624336 170.490753,87.978966 168.399490,83.415909 
	C170.166946,82.609367 171.927414,81.120430 173.702972,81.102219 
	C190.821426,80.926613 207.942413,80.998482 225.531342,80.999786 
	C226.000000,86.354927 226.000000,91.709862 226.000000,97.532394 
z"/>
<path fill="#080909" opacity="1.000000" stroke="none" 
	d="
M50.000061,147.612228 
	C49.838905,153.352493 46.685627,155.055756 41.791161,155.026794 
	C28.506958,154.948227 15.221984,154.999939 1.468657,155.000000 
	C1.000000,150.310745 1.000000,145.621490 1.000000,140.466125 
	C16.781012,140.000000 32.562023,140.001633 48.343033,139.997070 
	C49.671097,139.996689 50.999592,139.922119 52.327114,139.939789 
	C54.338062,139.966537 56.348339,140.044052 58.358894,140.099976 
	C58.010426,142.212158 57.661957,144.324326 57.251579,146.811752 
	C54.574837,145.431946 52.721256,144.476456 50.438213,143.299591 
	C50.273869,144.772522 50.137047,145.998795 50.000061,147.612228 
z"/>
<path fill="#FDFDFD" opacity="1.000000" stroke="none" 
	d="
M102.493721,174.708908 
	C98.028915,180.810181 91.485207,179.364777 85.374809,179.377502 
	C69.307793,179.410965 53.240654,179.388809 35.722668,179.388809 
	C41.665970,170.980072 46.976913,163.466003 51.966225,155.542664 
	C51.644600,155.133377 51.684719,155.053772 51.684719,155.053772 
	C52.761860,154.270416 53.839001,153.487045 54.967140,152.378967 
	C64.352539,138.949417 73.686935,125.844566 83.092133,112.396729 
	C88.771362,104.277130 94.379791,96.500526 100.066879,88.385941 
	C102.639099,84.664772 105.137596,81.285202 107.623901,77.896690 
	C108.685753,76.449532 109.722160,74.983711 111.147797,73.034050 
	C113.105736,70.099747 114.685989,67.657753 116.266235,65.215752 
	C116.266235,65.215752 116.088493,65.083168 116.452026,65.013794 
	C117.625320,63.628868 118.435081,62.313324 119.244850,60.997776 
	C121.774994,57.536877 124.183540,53.976387 126.895866,50.664696 
	C127.962158,49.362778 129.699219,47.761559 131.145065,47.747334 
	C150.709229,47.554905 170.275909,47.618137 190.497513,47.618137 
	C189.174072,50.152958 188.104279,52.201942 186.891571,54.914665 
	C186.777969,56.031189 186.807266,56.483978 186.836548,56.936760 
	C184.922180,58.527637 182.583008,59.809631 181.164185,61.760853 
	C173.474869,72.335464 166.013046,83.075508 158.327225,94.073227 
	C158.181580,94.387901 158.100403,94.493088 157.868103,94.766434 
	C153.739655,100.686630 149.843521,106.333481 145.947388,111.980324 
	C132.581284,130.819260 119.215195,149.658203 105.708961,168.778534 
	C104.441116,170.674942 103.313400,172.289948 102.410263,174.269623 
	C102.634834,174.634293 102.493721,174.708908 102.493721,174.708908 
z"/>
<path fill="#FDFDFE" opacity="1.000000" stroke="none" 
	d="
M105.728699,64.308296 
	C105.037292,64.987793 104.482864,65.359070 103.590363,65.982117 
	C103.025734,66.380669 102.827057,66.558563 102.656258,66.767563 
	C102.485046,66.746506 102.313828,66.725449 101.886909,66.777565 
	C101.351608,66.760277 101.162323,66.841164 101.063339,67.093399 
	C100.586136,67.096336 100.108940,67.099274 98.994690,67.099655 
	C78.901566,67.076729 59.445473,67.056366 39.989384,67.035995 
	C39.989384,60.739880 39.989384,54.443760 39.989384,47.883781 
	C65.647461,47.883781 91.147919,47.883781 117.254326,47.883781 
	C116.049728,49.621689 115.138031,50.937023 113.781601,52.680527 
	C112.503738,54.626263 111.670601,56.143818 110.837463,57.661377 
	C109.180206,59.774277 107.522949,61.887177 105.728699,64.308296 
z"/>
<path fill="#050608" opacity="1.000000" stroke="none" 
	d="
M40.027573,67.326515 
	C59.445473,67.056366 78.901566,67.076729 98.766136,67.183846 
	C98.969902,67.701996 98.765190,68.133400 98.029297,68.784225 
	C97.498116,69.003647 97.002190,69.003395 97.002190,69.003395 
	C78.647530,69.001328 60.292870,68.999268 41.469692,68.996376 
	C40.689369,68.536041 40.377567,68.076538 40.027573,67.326515 
z"/>
<path fill="#101010" opacity="1.000000" stroke="none" 
	d="
M115.903732,65.159119 
	C114.685989,67.657753 113.105736,70.099747 111.235718,72.700706 
	C109.495087,70.348259 103.694633,70.852730 106.019485,65.390594 
	C109.203148,65.065956 112.372185,65.084213 115.903732,65.159119 
z"/>
<path fill="#151617" opacity="1.000000" stroke="none" 
	d="
M121.004089,50.989471 
	C119.993523,50.271500 118.982948,49.553528 117.972382,48.835556 
	C118.010971,48.388031 118.049561,47.940502 118.088158,47.492977 
	C119.518631,47.492977 120.949112,47.492977 122.379585,47.492977 
	C122.365349,48.490547 122.351105,49.488113 121.917801,50.739952 
	C121.498734,50.994217 121.004089,50.989471 121.004089,50.989471 
z"/>
<path fill="#101010" opacity="1.000000" stroke="none" 
	d="
M111.032387,57.956875 
	C111.670601,56.143818 112.503738,54.626263 113.648300,52.999794 
	C113.352142,54.832581 115.725677,58.293560 111.032387,57.956875 
z"/>
<path fill="#151617" opacity="1.000000" stroke="none" 
	d="
M39.916714,43.100433 
	C39.091492,43.736851 38.276875,44.023613 37.462261,44.310379 
	C37.519478,43.577408 37.576691,42.844437 37.633904,42.111465 
	C38.398373,42.324570 39.162846,42.537674 39.916714,43.100433 
z"/>
<path fill="#101010" opacity="1.000000" stroke="none" 
	d="
M118.867996,60.997917 
	C118.435081,62.313324 117.625320,63.628868 116.521515,65.100174 
	C116.254135,63.449665 114.177948,60.525440 118.867996,60.997917 
z"/>
<path fill="#0D0E0F" opacity="1.000000" stroke="none" 
	d="
M174.122040,76.365952 
	C174.816437,76.941650 175.209869,77.533203 175.603302,78.124756 
	C175.215332,78.263191 174.827347,78.401634 174.439377,78.540070 
	C174.233276,77.820641 174.027176,77.101212 174.122040,76.365952 
z"/>
<path fill="#101010" opacity="1.000000" stroke="none" 
	d="
M117.003784,55.010616 
	C117.171806,54.454086 117.339828,53.897560 117.861542,53.388077 
	C118.414375,53.707092 118.674561,53.894165 118.995796,53.996342 
	C119.145081,54.567581 119.294365,55.138817 118.961990,55.748505 
	C117.988144,55.528179 117.495972,55.269398 117.003784,55.010616 
z"/>
<path fill="#151617" opacity="1.000000" stroke="none" 
	d="
M118.614075,41.539879 
	C119.057831,41.654591 119.329796,41.934158 119.580711,42.231480 
	C119.587143,42.239105 119.362907,42.441395 119.246254,42.552891 
	C118.977341,42.270950 118.708420,41.989010 118.614075,41.539879 
z"/>
<path fill="#0D0E0F" opacity="1.000000" stroke="none" 
	d="
M162.669495,95.002411 
	C162.767441,95.519722 162.531723,96.034256 162.295990,96.548798 
	C161.890137,96.230392 161.484299,95.911987 161.039841,95.296036 
	C161.446091,94.998863 161.890961,94.999245 162.669495,95.002411 
z"/>
<path fill="#151617" opacity="1.000000" stroke="none" 
	d="
M187.140106,56.923759 
	C186.807266,56.483978 186.777969,56.031189 186.931992,55.288780 
	C187.605148,55.272381 188.094971,55.545605 188.584808,55.818829 
	C188.204437,56.182804 187.824051,56.546780 187.140106,56.923759 
z"/>
<path fill="#101010" opacity="1.000000" stroke="none" 
	d="
M121.036270,51.274696 
	C121.004089,50.989471 121.498734,50.994217 121.745979,50.991898 
	C122.107613,51.486870 122.222008,51.984158 122.336395,52.481449 
	C121.913742,52.174271 121.491096,51.867096 121.036270,51.274696 
z"/>
<path fill="#151617" opacity="1.000000" stroke="none" 
	d="
M117.034836,55.300121 
	C117.495972,55.269398 117.988144,55.528179 118.737122,55.895370 
	C118.351242,55.865734 117.708565,55.727680 117.034836,55.300121 
z"/>
<path fill="#151617" opacity="1.000000" stroke="none" 
	d="
M116.270363,44.399971 
	C116.146126,44.556370 115.932198,44.578644 115.718277,44.600918 
	C115.872414,44.489227 116.026543,44.377533 116.270363,44.399971 
z"/>
<path fill="#151617" opacity="1.000000" stroke="none" 
	d="
M126.531113,45.548389 
	C126.477760,45.579807 126.584473,45.516972 126.531113,45.548389 
z"/>
<path fill="#151617" opacity="1.000000" stroke="none" 
	d="
M118.886902,53.778137 
	C118.674561,53.894165 118.414375,53.707092 118.105042,53.217709 
	C118.317169,53.101128 118.578224,53.287670 118.886902,53.778137 
z"/>
<path fill="#FDFDFD" opacity="1.000000" stroke="none" 
	d="
M187.146454,160.637756 
	C187.357193,166.361145 187.287445,171.720718 187.099335,177.946777 
	C179.717972,179.000748 172.455917,179.284622 165.191742,179.356537 
	C147.767883,179.529007 130.343063,179.601898 112.918625,179.714996 
	C112.595078,179.630142 112.271530,179.545288 111.538162,179.487701 
	C110.749870,178.961380 110.371414,178.407806 109.992950,177.854248 
	C113.255180,173.532242 116.257515,168.974136 119.883507,164.982574 
	C121.852486,162.815094 124.861763,160.231369 127.437325,160.192535 
	C147.241959,159.893951 167.055298,160.173691 187.146454,160.637756 
z"/>
<path fill="#121312" opacity="1.000000" stroke="none" 
	d="
M146.358932,111.987732 
	C149.843521,106.333481 153.739655,100.686630 157.860291,94.832413 
	C158.846542,97.672203 159.608307,100.719376 160.370056,103.766556 
	C159.880829,103.972420 159.391602,104.178284 158.902359,104.384148 
	C158.121689,103.524254 157.341019,102.664368 155.890411,101.066551 
	C154.525009,103.399055 152.688995,105.403000 152.163635,107.705933 
	C151.427841,110.931374 150.062927,112.428490 146.358932,111.987732 
z"/>
<path fill="#020202" opacity="1.000000" stroke="none" 
	d="
M109.942719,177.509384 
	C110.371414,178.407806 110.749870,178.961380 111.380249,179.698593 
	C111.373123,179.916489 111.114075,179.950729 110.114609,180.061890 
	C108.914001,181.092102 108.453796,182.045441 107.993607,182.998779 
	C107.993607,182.998779 107.498138,182.999329 107.250443,182.999359 
	C106.568832,180.562195 106.134926,178.125015 105.850510,175.344208 
	C107.297493,175.721909 108.594986,176.443222 109.942719,177.509384 
z"/>
<path fill="#090A0A" opacity="1.000000" stroke="none" 
	d="
M112.954308,180.147034 
	C130.343063,179.601898 147.767883,179.529007 165.191742,179.356537 
	C172.455917,179.284622 179.717972,179.000748 187.215714,178.400330 
	C189.120285,178.913391 190.790146,179.839355 192.460007,180.765320 
	C192.233505,181.551849 192.006989,182.338379 191.780487,183.124908 
	C189.724258,183.124908 187.667862,183.140671 185.611862,183.119629 
	C184.121597,183.104385 182.631851,183.004166 181.141861,183.003601 
	C160.086639,182.995590 139.031006,183.052719 117.976997,182.893509 
	C116.308922,182.880905 114.652061,181.385437 112.954308,180.147034 
z"/>
<path fill="#090A0A" opacity="1.000000" stroke="none" 
	d="
M108.192017,183.249527 
	C108.453796,182.045441 108.914001,181.092102 109.728592,180.129791 
	C109.410599,181.193100 112.861572,184.330521 108.192017,183.249527 
z"/>
<path fill="#090A0A" opacity="1.000000" stroke="none" 
	d="
M34.030121,183.281418 
	C34.975704,183.131165 35.950191,183.262329 36.961651,183.696136 
	C36.018757,183.853470 35.038891,183.708145 34.030121,183.281418 
z"/>
<path fill="#090A0A" opacity="1.000000" stroke="none" 
	d="
M97.297318,182.979248 
	C97.568275,182.543396 98.137108,182.086792 98.856094,181.816589 
	C98.535896,182.321472 98.065544,182.639969 97.297318,182.979248 
z"/>
<path fill="#101010" opacity="1.000000" stroke="none" 
	d="
M101.034912,67.537117 
	C101.162323,66.841164 101.351608,66.760277 101.667206,66.914261 
	C101.834961,67.666031 101.966713,68.354294 102.098465,69.042549 
	C101.734467,68.688644 101.370468,68.334740 101.034912,67.537117 
z"/>
<path fill="#101010" opacity="1.000000" stroke="none" 
	d="
M102.894485,66.981979 
	C102.827057,66.558563 103.025734,66.380669 103.451797,66.193268 
	C103.478439,66.500565 103.305580,66.848473 102.894485,66.981979 
z"/>
<path fill="#121312" opacity="1.000000" stroke="none" 
	d="
M97.090347,69.167419 
	C97.002190,69.003395 97.498116,69.003647 97.745956,69.007217 
	C97.722038,69.117676 97.450272,69.224556 97.090347,69.167419 
z"/>
<path fill="#0B0C0D" opacity="1.000000" stroke="none" 
	d="
M72.269417,122.301674 
	C71.400116,122.021332 70.824318,121.587242 70.248528,121.153152 
	C71.041023,120.821159 71.833527,120.489166 72.626030,120.157181 
	C72.604996,120.820763 72.583961,121.484352 72.269417,122.301674 
z"/>
<path fill="#0B0C0D" opacity="1.000000" stroke="none" 
	d="
M67.598206,125.045319 
	C67.206642,125.284027 66.817200,125.282188 66.429947,125.252205 
	C66.419106,125.251366 66.431564,124.949509 66.433167,124.788017 
	C66.822327,124.792290 67.211487,124.796562 67.598206,125.045319 
z"/>
<path fill="#090A0A" opacity="1.000000" stroke="none" 
	d="
M51.362282,155.070541 
	C51.684719,155.053772 51.644600,155.133377 51.686954,155.158585 
	C51.223995,155.408783 50.718678,155.633774 50.213364,155.858749 
	C50.160564,155.736618 50.107761,155.614471 50.054962,155.492325 
	C50.383255,155.357330 50.711548,155.222321 51.362282,155.070541 
z"/>
<path fill="#090A0A" opacity="1.000000" stroke="none" 
	d="
M102.672302,174.563812 
	C102.918465,174.678528 103.127159,174.863708 103.335846,175.048920 
	C103.145264,175.051941 102.954681,175.054977 102.628906,174.883453 
	C102.493721,174.708908 102.634834,174.634293 102.672302,174.563812 
z"/>
<path fill="#090A0A" opacity="1.000000" stroke="none" 
	d="
M42.467743,163.450378 
	C42.522411,163.417877 42.413078,163.482880 42.467743,163.450378 
z"/>
</svg>